<svg width="100%" height="100%" viewBox="42 42 525 525" fill="none" xmlns="http://www.w3.org/2000/svg">
<g style="mix-blend-mode:hard-light" filter="url(#filter0_f_2_208)">
<path d="M47.2371 304.5C47.2371 162.418 162.418 47.2371 304.5 47.2371C446.582 47.2371 561.763 162.418 561.763 304.5C561.763 446.582 446.582 561.763 304.5 561.763C162.418 561.763 47.2371 446.582 47.2371 304.5Z" stroke="#D1E5FF" stroke-width="4.47414"/>
</g>
<g style="mix-blend-mode:hard-light" filter="url(#filter1_f_2_208)">
<path d="M47.9828 304.5C47.9828 162.829 162.829 47.9828 304.5 47.9828C446.171 47.9828 561.017 162.829 561.017 304.5C561.017 446.171 446.171 561.017 304.5 561.017C162.829 561.017 47.9828 446.171 47.9828 304.5Z" stroke="#D1E5FF" stroke-width="5.96552"/>
</g>
<g style="mix-blend-mode:hard-light" filter="url(#filter2_ddi_2_208)">
<path d="M47.2371 304.5C47.2371 162.418 162.418 47.2371 304.5 47.2371C446.582 47.2371 561.763 162.418 561.763 304.5C561.763 446.582 446.582 561.763 304.5 561.763C162.418 561.763 47.2371 446.582 47.2371 304.5Z" stroke="#D1E5FF" stroke-opacity="0.2" stroke-width="4.47414"/>
</g>
<g filter="url(#filter3_f_2_208)">
<path d="M46.4914 304.5C46.4914 162.006 162.006 46.4914 304.5 46.4914C446.994 46.4914 562.509 162.006 562.509 304.5C562.509 446.994 446.994 562.509 304.5 562.509C162.006 562.509 46.4914 446.994 46.4914 304.5Z" stroke="#D1E5FF" stroke-width="2.98276"/>
</g>
<g filter="url(#filter4_f_2_208)">
<path d="M45.7457 304.5C45.7457 161.594 161.594 45.7457 304.5 45.7457C447.406 45.7457 563.254 161.594 563.254 304.5C563.254 447.406 447.406 563.254 304.5 563.254C161.594 563.254 45.7457 447.406 45.7457 304.5Z" stroke="white" stroke-width="1.49138"/>
</g>
<defs>
<filter id="filter0_f_2_208" x="0.258621" y="0.258621" width="608.483" height="608.483" filterUnits="userSpaceOnUse" color-interpolation-filters="sRGB">
<feFlood flood-opacity="0" result="BackgroundImageFix"/>
<feBlend mode="normal" in="SourceGraphic" in2="BackgroundImageFix" result="shape"/>
<feGaussianBlur stdDeviation="22.3707" result="effect1_foregroundBlur_2_208"/>
</filter>
<filter id="filter1_f_2_208" x="30.0862" y="30.0862" width="548.828" height="548.828" filterUnits="userSpaceOnUse" color-interpolation-filters="sRGB">
<feFlood flood-opacity="0" result="BackgroundImageFix"/>
<feBlend mode="normal" in="SourceGraphic" in2="BackgroundImageFix" result="shape"/>
<feGaussianBlur stdDeviation="7.4569" result="effect1_foregroundBlur_2_208"/>
</filter>
<filter id="filter2_ddi_2_208" x="25.6121" y="40.5259" width="557.776" height="557.776" filterUnits="userSpaceOnUse" color-interpolation-filters="sRGB">
<feFlood flood-opacity="0" result="BackgroundImageFix"/>
<feColorMatrix in="SourceAlpha" type="matrix" values="0 0 0 0 0 0 0 0 0 0 0 0 0 0 0 0 0 0 127 0" result="hardAlpha"/>
<feOffset dy="9.69396"/>
<feGaussianBlur stdDeviation="3.72845"/>
<feColorMatrix type="matrix" values="0 0 0 0 0 0 0 0 0 0.051 0 0 0 0 0.082 0 0 0 0.7 0"/>
<feBlend mode="multiply" in2="BackgroundImageFix" result="effect1_dropShadow_2_208"/>
<feColorMatrix in="SourceAlpha" type="matrix" values="0 0 0 0 0 0 0 0 0 0 0 0 0 0 0 0 0 0 127 0" result="hardAlpha"/>
<feOffset dy="14.9138"/>
<feGaussianBlur stdDeviation="9.69396"/>
<feColorMatrix type="matrix" values="0 0 0 0 0 0 0 0 0 0.4 0 0 0 0 1 0 0 0 1 0"/>
<feBlend mode="color-dodge" in2="effect1_dropShadow_2_208" result="effect2_dropShadow_2_208"/>
<feBlend mode="normal" in="SourceGraphic" in2="effect2_dropShadow_2_208" result="shape"/>
<feColorMatrix in="SourceAlpha" type="matrix" values="0 0 0 0 0 0 0 0 0 0 0 0 0 0 0 0 0 0 127 0" result="hardAlpha"/>
<feOffset dx="-0.969396" dy="1.93879"/>
<feGaussianBlur stdDeviation="0.484698"/>
<feComposite in2="hardAlpha" operator="arithmetic" k2="-1" k3="1"/>
<feColorMatrix type="matrix" values="0 0 0 0 1 0 0 0 0 1 0 0 0 0 1 0 0 0 0.5 0"/>
<feBlend mode="normal" in2="shape" result="effect3_innerShadow_2_208"/>
</filter>
<filter id="filter3_f_2_208" x="43.5086" y="43.5086" width="521.983" height="521.983" filterUnits="userSpaceOnUse" color-interpolation-filters="sRGB">
<feFlood flood-opacity="0" result="BackgroundImageFix"/>
<feBlend mode="normal" in="SourceGraphic" in2="BackgroundImageFix" result="shape"/>
<feGaussianBlur stdDeviation="0.74569" result="effect1_foregroundBlur_2_208"/>
</filter>
<filter id="filter4_f_2_208" x="44.0057" y="44.0057" width="520.989" height="520.989" filterUnits="userSpaceOnUse" color-interpolation-filters="sRGB">
<feFlood flood-opacity="0" result="BackgroundImageFix"/>
<feBlend mode="normal" in="SourceGraphic" in2="BackgroundImageFix" result="shape"/>
<feGaussianBlur stdDeviation="0.497126" result="effect1_foregroundBlur_2_208"/>
</filter>
</defs>
</svg>
