<svg width="100%" height="auto"  viewBox="0 0 714 120" fill="none" xmlns="http://www.w3.org/2000/svg" preserveaspectratio="none">
<g style="mix-blend-mode:hard-light" filter="url(#filter0_f_2_168)">
<path d="M16.5 40C16.5 27.0213 27.0213 16.5 40 16.5H673.5C686.479 16.5 697 27.0213 697 40V80C697 92.9787 686.479 103.5 673.5 103.5H16.5V40Z" stroke="#D1E5FF" stroke-width="3"/>
</g>
<g style="mix-blend-mode:hard-light" filter="url(#filter1_f_2_168)">
<path d="M17 40C17 27.2975 27.2975 17 40 17H674.5C687.203 17 697.5 27.2975 697.5 40V80C697.5 92.7025 687.203 103 674.5 103H17V40Z" stroke="#D1E5FF" stroke-width="4"/>
</g>
<g style="mix-blend-mode:hard-light" filter="url(#filter2_ddi_2_168)">
<path d="M16.5 40C16.5 27.0213 27.0213 16.5 40 16.5H674.5C687.479 16.5 698 27.0213 698 40V80C698 92.9787 687.479 103.5 674.5 103.5H16.5V40Z" stroke="#D1E5FF" stroke-opacity="0.2" stroke-width="3"/>
</g>
<g filter="url(#filter3_f_2_168)">
<path d="M16 40C16 26.7452 26.7452 16 40 16H673.5C686.755 16 697.5 26.7452 697.5 40V80C697.5 93.2548 686.755 104 673.5 104H16V40Z" stroke="#D1E5FF" stroke-width="2"/>
</g>
<g filter="url(#filter4_f_2_168)">
<path d="M15.5 40C15.5 26.469 26.469 15.5 40 15.5H672.5C686.031 15.5 697 26.469 697 40V80C697 93.531 686.031 104.5 672.5 104.5H15.5V40Z" stroke="white"/>
</g>
<defs>
<filter id="filter0_f_2_168" x="0" y="0" width="713.5" height="120" filterUnits="userSpaceOnUse" color-interpolation-filters="sRGB">
<feFlood flood-opacity="0" result="BackgroundImageFix"/>
<feBlend mode="normal" in="SourceGraphic" in2="BackgroundImageFix" result="shape"/>
<feGaussianBlur stdDeviation="7.5" result="effect1_foregroundBlur_2_168"/>
</filter>
<filter id="filter1_f_2_168" x="10" y="10" width="694.5" height="100" filterUnits="userSpaceOnUse" color-interpolation-filters="sRGB">
<feFlood flood-opacity="0" result="BackgroundImageFix"/>
<feBlend mode="normal" in="SourceGraphic" in2="BackgroundImageFix" result="shape"/>
<feGaussianBlur stdDeviation="2.5" result="effect1_foregroundBlur_2_168"/>
</filter>
<filter id="filter2_ddi_2_168" x="8" y="10" width="698.5" height="104" filterUnits="userSpaceOnUse" color-interpolation-filters="sRGB">
<feFlood flood-opacity="0" result="BackgroundImageFix"/>
<feColorMatrix in="SourceAlpha" type="matrix" values="0 0 0 0 0 0 0 0 0 0 0 0 0 0 0 0 0 0 127 0" result="hardAlpha"/>
<feOffset dy="3"/>
<feGaussianBlur stdDeviation="1"/>
<feColorMatrix type="matrix" values="0 0 0 0 0 0 0 0 0 0.051 0 0 0 0 0.082 0 0 0 0.7 0"/>
<feBlend mode="multiply" in2="BackgroundImageFix" result="effect1_dropShadow_2_168"/>
<feColorMatrix in="SourceAlpha" type="matrix" values="0 0 0 0 0 0 0 0 0 0 0 0 0 0 0 0 0 0 127 0" result="hardAlpha"/>
<feOffset dy="2"/>
<feGaussianBlur stdDeviation="3.5"/>
<feColorMatrix type="matrix" values="0 0 0 0 0 0 0 0 0 0.4 0 0 0 0 1 0 0 0 1 0"/>
<feBlend mode="color-dodge" in2="effect1_dropShadow_2_168" result="effect2_dropShadow_2_168"/>
<feBlend mode="normal" in="SourceGraphic" in2="effect2_dropShadow_2_168" result="shape"/>
<feColorMatrix in="SourceAlpha" type="matrix" values="0 0 0 0 0 0 0 0 0 0 0 0 0 0 0 0 0 0 127 0" result="hardAlpha"/>
<feOffset dx="-0.65" dy="1.3"/>
<feGaussianBlur stdDeviation="0.325"/>
<feComposite in2="hardAlpha" operator="arithmetic" k2="-1" k3="1"/>
<feColorMatrix type="matrix" values="0 0 0 0 1 0 0 0 0 1 0 0 0 0 1 0 0 0 0.5 0"/>
<feBlend mode="normal" in2="shape" result="effect3_innerShadow_2_168"/>
</filter>
<filter id="filter3_f_2_168" x="14" y="14" width="685.5" height="92" filterUnits="userSpaceOnUse" color-interpolation-filters="sRGB">
<feFlood flood-opacity="0" result="BackgroundImageFix"/>
<feBlend mode="normal" in="SourceGraphic" in2="BackgroundImageFix" result="shape"/>
<feGaussianBlur stdDeviation="0.5" result="effect1_foregroundBlur_2_168"/>
</filter>
<filter id="filter4_f_2_168" x="14.3333" y="14.3333" width="683.833" height="91.3333" filterUnits="userSpaceOnUse" color-interpolation-filters="sRGB">
<feFlood flood-opacity="0" result="BackgroundImageFix"/>
<feBlend mode="normal" in="SourceGraphic" in2="BackgroundImageFix" result="shape"/>
<feGaussianBlur stdDeviation="0.333333" result="effect1_foregroundBlur_2_168"/>
</filter>
</defs>
</svg>
